<svg width="489" height="96" viewBox="0 0 489 96" fill="none" xmlns="http://www.w3.org/2000/svg">
<g clip-path="url(#clip0_84_708)">
<path d="M288.012 34.2759L285.419 34.3971C286.631 38.5382 287.544 43.6408 287.544 48C287.531 59.2525 283.346 70.1007 275.798 78.4464C268.251 86.7922 257.876 92.0426 246.682 93.1822C235.487 94.3218 224.267 91.2697 215.193 84.6162C206.118 77.9627 199.833 68.1804 197.553 57.1612C195.273 46.1421 197.16 34.669 202.85 24.9607C208.539 15.2524 217.626 7.99872 228.354 4.60251C239.082 1.2063 250.688 1.90883 260.928 6.57424C271.168 11.2396 279.314 19.5365 283.79 29.8601H265.343V32.3165H287.418L286.756 30.6439C282.432 19.4465 274.083 10.2674 263.344 4.90574C252.605 -0.455902 240.251 -1.61352 228.703 1.6598C217.154 4.93313 207.245 12.4014 200.917 22.6008C194.589 32.8001 192.298 44.9952 194.493 56.7958C196.689 68.5964 203.212 79.1516 212.785 86.3926C222.358 93.6337 234.29 97.0384 246.243 95.9395C258.196 94.8406 269.307 89.3173 277.399 80.4521C285.491 71.587 289.981 60.0193 289.988 48.0162C289.975 43.3662 289.31 38.741 288.012 34.2759Z" fill="#5F5F5F"/>
<path d="M265.344 28.6724V33.1891C265.346 33.2282 265.346 33.2673 265.344 33.3063C265.328 33.3758 265.302 33.4426 265.267 33.5043C265.212 33.5986 265.134 33.677 265.04 33.7316C264.945 33.7862 264.838 33.8151 264.729 33.8154H256.189C256.023 33.8154 255.863 33.7494 255.746 33.6319C255.628 33.5145 255.563 33.3552 255.563 33.1891V28.6724C255.562 28.59 255.578 28.5083 255.609 28.4321C255.64 28.3559 255.686 28.2866 255.745 28.2284C255.803 28.1701 255.872 28.124 255.948 28.0927C256.025 28.0614 256.106 28.0456 256.189 28.0462H264.717C264.874 28.0467 265.024 28.106 265.138 28.2123C265.253 28.3186 265.323 28.4641 265.335 28.6198C265.335 28.6198 265.344 28.6522 265.344 28.6724Z" fill="#5F5F5F"/>
<path d="M278.615 33.7871H267.02V34.3163C267.019 34.4785 266.953 34.6337 266.838 34.748C266.723 34.8623 266.568 34.9264 266.406 34.9264H254.689C254.527 34.9264 254.372 34.8623 254.257 34.748C254.142 34.6337 254.076 34.4785 254.075 34.3163V27.3553C254.075 27.1924 254.14 27.0362 254.255 26.9211C254.37 26.8059 254.527 26.7412 254.689 26.7412H266.406C266.568 26.7412 266.725 26.8059 266.84 26.9211C266.955 27.0362 267.02 27.1924 267.02 27.3553V28.1633H275.847C266.418 12.3465 246.476 4.19766 227.201 11.6637C214.151 16.7178 202.928 32.3973 202.375 46.38C201.191 76.2764 231.346 96.8404 259.085 84.0657C264.937 81.3682 270.015 77.2394 273.85 72.0607C277.685 66.882 280.153 60.8204 281.027 54.4358C282.024 47.4602 281.193 40.3452 278.615 33.7871ZM221.391 73.4282C218.645 71.2408 216.36 68.5299 214.669 65.4528C212.978 62.3757 211.915 58.9935 211.541 55.5024L214.515 55.1752C214.855 58.2743 215.801 61.2762 217.301 64.0094C218.801 66.7426 220.825 69.1535 223.257 71.1044C225.689 73.0553 228.481 74.508 231.474 75.3795C234.468 76.251 237.604 76.5242 240.703 76.1835L241.03 79.157C237.54 79.548 234.008 79.243 230.637 78.2596C227.266 77.2763 224.123 75.6341 221.391 73.4282ZM219.335 53.7248L222.906 53.3208C223.382 57.6372 225.552 61.5881 228.94 64.3042C232.328 67.0204 236.657 68.2795 240.973 67.8044L241.377 71.3718C236.115 71.9481 230.84 70.4139 226.707 67.1057C222.575 63.7975 219.924 58.9853 219.335 53.7248ZM254.306 50.824C254.006 52.6009 253.309 54.2871 252.266 55.7564C251.223 57.2256 249.861 58.4398 248.282 59.3082C238.654 64.5885 227.653 56.7831 229.459 45.9517C229.757 44.1749 230.453 42.4886 231.496 41.0193C232.538 39.5499 233.9 38.3357 235.479 37.4676C245.11 32.1832 256.111 39.9886 254.306 50.824Z" fill="#5F5F5F"/>
</g>
<path d="M153.06 94C152.207 94 151.481 93.7013 150.884 93.104C150.287 92.5067 149.988 91.7813 149.988 90.928V74.544H109.412C108.473 74.544 107.705 74.2453 107.108 73.648C106.596 73.0507 106.34 72.3253 106.34 71.472V62.768C106.34 62.256 106.425 61.6587 106.596 60.976C106.852 60.208 107.236 59.5253 107.748 58.928L145.508 6.576C146.617 5.12533 148.196 4.39999 150.244 4.39999H164.196C165.049 4.39999 165.775 4.69866 166.372 5.296C166.969 5.89333 167.268 6.61866 167.268 7.47199V59.44H178.66C179.684 59.44 180.452 59.7387 180.964 60.336C181.561 60.848 181.86 61.5733 181.86 62.512V71.472C181.86 72.3253 181.561 73.0507 180.964 73.648C180.367 74.2453 179.641 74.544 178.788 74.544H167.268V90.928C167.268 91.7813 166.969 92.5067 166.372 93.104C165.775 93.7013 165.049 94 164.196 94H153.06ZM124.132 59.952H150.372V22.96L124.132 59.952ZM353.56 94C352.707 94 351.981 93.7013 351.384 93.104C350.787 92.5067 350.488 91.7813 350.488 90.928V74.544H309.912C308.973 74.544 308.205 74.2453 307.608 73.648C307.096 73.0507 306.84 72.3253 306.84 71.472V62.768C306.84 62.256 306.925 61.6587 307.096 60.976C307.352 60.208 307.736 59.5253 308.248 58.928L346.008 6.576C347.117 5.12533 348.696 4.39999 350.744 4.39999H364.696C365.549 4.39999 366.275 4.69866 366.872 5.296C367.469 5.89333 367.768 6.61866 367.768 7.47199V59.44H379.16C380.184 59.44 380.952 59.7387 381.464 60.336C382.061 60.848 382.36 61.5733 382.36 62.512V71.472C382.36 72.3253 382.061 73.0507 381.464 73.648C380.867 74.2453 380.141 74.544 379.288 74.544H367.768V90.928C367.768 91.7813 367.469 92.5067 366.872 93.104C366.275 93.7013 365.549 94 364.696 94H353.56ZM324.632 59.952H350.872V22.96L324.632 59.952Z" fill="#5F5F5F"/>
<defs>
<clipPath id="clip0_84_708">
<rect width="96" height="96" fill="white" transform="translate(194)"/>
</clipPath>
</defs>
</svg>
